<svg version="1.2" xmlns="http://www.w3.org/2000/svg" viewBox="0 0 2480 3508" width="20" height="28">
	<style>
		.s0 { opacity: 1;fill: #db8017 } 
		.s1 { opacity: 1;fill: #11452c } 
	</style>
	<g id="Camada 1">
		<path id="Path 0" class="s0" d="m1221 563c0 0.55-2.03 1-4.5 1-3.33 0-4.5 0.39-4.5 1.5 0 0.83-0.67 1.5-1.5 1.5-0.83 0-1.5 0.67-1.5 1.5 0 1.11-1.17 1.5-4.5 1.5-3.33 0-4.5 0.39-4.5 1.5 0 0.83-0.67 1.5-1.5 1.5-0.83 0-1.5 0.67-1.5 1.5q0 1.5-3 1.5-3 0-3 1.5c0 0.83-0.67 1.5-1.5 1.5-0.83 0-1.5 0.67-1.5 1.5 0 0.83-0.67 1.5-1.5 1.5-0.83 0-1.5 0.67-1.5 1.5 0 0.83-0.67 1.5-1.5 1.5-0.83 0-1.5 0.67-1.5 1.5 0 0.83-0.67 1.5-1.5 1.5-0.83 0-1.5 0.67-1.5 1.5q0 1.5-3 1.5c-2.67 0-3 0.33-3 3 0 2.67-0.33 3-3 3q-3 0-3 1.5c0 0.83-0.67 1.5-1.5 1.5-0.83 0-1.5 0.67-1.5 1.5 0 0.83-0.67 1.5-1.5 1.5-0.83 0-1.5 0.67-1.5 1.5 0 0.83-0.67 1.5-1.5 1.5-0.83 0-1.5 0.67-1.5 1.5 0 0.83-0.67 1.5-1.5 1.5-0.83 0-1.5 0.67-1.5 1.5 0 0.83-0.67 1.5-1.5 1.5-0.83 0-1.5 0.67-1.5 1.5 0 0.83-0.67 1.5-1.5 1.5-0.83 0-1.5 0.67-1.5 1.5 0 0.83-0.67 1.5-1.5 1.5-0.83 0-1.5 0.67-1.5 1.5 0 0.83-0.67 1.5-1.5 1.5-0.83 0-1.5 0.67-1.5 1.5 0 0.83-0.55 1.5-1.23 1.5-0.67 0-4.27 3.15-8 7-3.77 3.9-6.77 7.89-6.77 9 0 1.45-0.75 2.07-2.75 2.25-2.2 0.2-2.8 0.8-3 3-0.2 2.2-0.8 2.8-3 3-2.02 0.18-2.82 0.85-3 2.5-0.15 1.36-4.98 6.9-12.21 14-6.57 6.46-11.97 12.54-12 13.5-0.02 0.96-2.73 4.34-6.01 7.5-3.28 3.16-5.99 6.65-6.03 7.75-0.04 1.1-2.75 4.59-6.03 7.75-3.28 3.16-5.97 6.2-5.97 6.75 0 0.55-0.67 1-1.5 1q-1.5 0-1.5 3c0 2.67-0.33 3-3 3-2.67 0-3 0.33-3 3q0 3-1.5 3c-0.83 0-1.5 0.67-1.5 1.5 0 0.83-0.67 1.5-1.5 1.5-0.83 0-1.5 0.67-1.5 1.5 0 0.83-0.67 1.5-1.5 1.5q-1.5 0-1.5 3 0 3-1.5 3c-0.83 0-1.5 0.67-1.5 1.5 0 0.83-0.67 1.5-1.5 1.5-0.83 0-1.5 0.67-1.5 1.5 0 0.83-0.67 1.5-1.5 1.5-0.83 0-1.5 0.67-1.5 1.5 0 0.83-0.67 1.5-1.5 1.5-0.83 0-1.5 0.67-1.5 1.5 0 0.83-0.67 1.5-1.5 1.5q-1.5 0-1.5 3 0 3-1.5 3c-0.83 0-1.5 0.67-1.5 1.5 0 0.83-0.67 1.5-1.5 1.5-0.83 0-1.5 0.67-1.5 1.5 0 0.83-0.67 1.5-1.5 1.5-0.83 0-1.5 0.67-1.5 1.5 0 0.83-0.67 1.5-1.5 1.5-0.83 0-1.5 0.67-1.5 1.5 0 0.83-0.67 1.5-1.5 1.5-0.83 0-1.5 0.67-1.5 1.5 0 0.83-0.67 1.5-1.5 1.5-0.83 0-1.5 0.67-1.5 1.5 0 0.83-0.67 1.5-1.5 1.5q-1.5 0-1.5 3 0 3-1.5 3c-0.83 0-1.5 0.67-1.5 1.5 0 0.83-0.67 1.5-1.5 1.5q-1.5 0-1.5 3 0 3-1.5 3c-0.83 0-1.5 0.67-1.5 1.5 0 0.83-0.67 1.5-1.5 1.5-0.83 0-1.5 0.67-1.5 1.5 0 0.83-0.67 1.5-1.5 1.5q-1.5 0-1.5 3c0 2.67-0.33 3-3 3-2.67 0-3 0.33-3 3q0 3-1.5 3c-0.83 0-1.5 0.67-1.5 1.5 0 0.83-0.67 1.5-1.5 1.5-0.83 0-1.5 0.67-1.5 1.5 0 0.83-0.67 1.5-1.5 1.5-0.83 0-1.5 0.67-1.5 1.5 0 0.83-0.67 1.5-1.5 1.5q-1.5 0-1.5 3 0 3-1.5 3c-0.83 0-1.5 0.67-1.5 1.5 0 0.83-0.45 1.5-1 1.5-0.55 0-2.14 1.24-3.53 2.75-1.4 1.51-2.52 3.31-2.5 4 0.01 0.69-1.99 3.27-4.47 5.75-2.48 2.48-4.52 5.29-4.53 6.25-0.02 0.96-2.05 3.66-4.5 6-2.46 2.34-4.48 5.04-4.5 6-0.02 0.96-2.72 4.34-6 7.5-3.39 3.26-5.97 6.62-5.97 7.75 0 1.1-0.67 2.23-1.5 2.5-0.83 0.27-1.5 1.17-1.5 2 0 0.83-0.67 1.5-1.5 1.5-0.83 0-1.5 0.67-1.5 1.5 0 0.83-0.67 1.5-1.5 1.5-0.83 0-1.5 0.67-1.5 1.5 0 0.83-0.67 1.5-1.5 1.5q-1.5 0-1.5 3 0 3-1.5 3c-0.83 0-1.5 0.67-1.5 1.5 0 0.83-0.67 1.5-1.5 1.5-0.83 0-1.5 0.67-1.5 1.5 0 0.83-0.67 1.5-1.5 1.5q-1.5 0-1.5 3 0 3-1.5 3c-0.83 0-1.5 0.67-1.5 1.5 0 0.83-0.67 1.5-1.5 1.5-0.83 0-1.5 0.67-1.5 1.5 0 0.83-0.67 1.5-1.5 1.5q-1.5 0-1.5 3 0 3-1.5 3c-0.83 0-1.5 0.67-1.5 1.5 0 0.83-0.67 1.5-1.5 1.5-0.83 0-1.5 0.67-1.5 1.5 0 0.83-0.67 1.5-1.5 1.5q-1.5 0-1.5 3 0 3-1.5 3c-0.83 0-1.5 0.67-1.5 1.5 0 0.83-0.67 1.5-1.5 1.5-0.83 0-1.5 0.67-1.5 1.5 0 0.83-0.67 1.5-1.5 1.5-0.83 0-1.5 0.67-1.5 1.5 0 0.83-0.67 1.5-1.5 1.5q-1.5 0-1.5 3 0 3-1.5 3c-0.83 0-1.5 0.67-1.5 1.5 0 0.83-0.67 1.5-1.5 1.5q-1.5 0-1.5 3 0 3-1.5 3c-0.83 0-1.5 0.67-1.5 1.5 0 0.83-0.67 1.5-1.5 1.5-0.83 0-1.5 0.67-1.5 1.5 0 0.83-0.67 1.5-1.5 1.5q-1.5 0-1.5 3 0 3-1.5 3c-0.83 0-1.5 0.67-1.5 1.5 0 0.83-0.67 1.5-1.5 1.5-0.83 0-1.5 0.67-1.5 1.5 0 0.83-0.67 1.5-1.5 1.5q-1.5 0-1.5 3 0 3-1.5 3c-0.83 0-1.5 0.67-1.5 1.5 0 0.83-0.67 1.5-1.5 1.5q-1.5 0-1.5 3 0 3-1.5 3c-0.83 0-1.5 0.67-1.5 1.5 0 0.83-0.67 1.5-1.5 1.5-0.83 0-1.5 0.67-1.5 1.5 0 0.83-0.67 1.5-1.5 1.5-0.83 0-1.5 0.67-1.5 1.5 0 0.83-0.67 1.5-1.5 1.5q-1.5 0-1.5 3 0 3-1.5 3-1.5 0-1.5 3 0 3-1.5 3c-0.83 0-1.5 0.67-1.5 1.5 0 0.83-0.67 1.73-1.5 2-0.83 0.27-1.5 1.4-1.5 2.5 0 1.13-2.58 4.49-5.97 7.75-3.75 3.61-5.98 6.59-6 8-0.02 1.24-0.7 2.48-1.53 2.75-0.83 0.27-1.5 1.63-1.5 3 0 2-0.55 2.55-2.75 2.75-2.09 0.19-2.84 0.85-3.1 2.75-0.2 1.38-1.88 3.96-3.75 5.75-1.87 1.79-3.42 4.04-3.44 5-0.02 0.96-2.04 3.55-4.48 5.75-2.44 2.2-4.44 4.79-4.46 5.75-0.01 0.96-2.03 3.66-4.49 6-2.46 2.34-4.51 5.15-4.55 6.25-0.03 1.1-1.4 3.13-3.04 4.5-1.63 1.38-2.97 3.29-2.96 4.25 0.01 0.96-1.99 3.66-4.45 6-2.46 2.34-4.51 5.15-4.55 6.25-0.03 1.1-1.4 3.13-3.04 4.5-1.63 1.38-2.98 3.4-3 4.5-0.01 1.1-1.36 3.13-3 4.5-1.63 1.38-2.97 3.29-2.96 4.25 0.01 0.96-1.99 3.66-4.45 6-2.67 2.54-4.49 5.16-4.5 6.5-0.02 1.24-0.7 2.47-1.53 2.75-0.83 0.28-1.5 1.4-1.5 2.5 0 1.13-2.58 4.49-5.97 7.75-3.28 3.16-6 6.65-6.04 7.75-0.04 1.1-1.41 3.13-3.05 4.5-1.63 1.38-2.98 3.4-3 4.5-0.01 1.1-1.36 3.13-3 4.5-1.63 1.38-2.97 3.29-2.96 4.25 0.01 0.96-1.99 3.66-4.45 6-2.46 2.34-4.51 5.15-4.55 6.25-0.03 1.1-1.4 3.13-3.04 4.5-1.63 1.38-2.97 3.29-2.96 4.25 0.01 0.96-1.99 3.66-4.45 6-2.67 2.54-4.49 5.16-4.5 6.5-0.02 1.72-0.68 2.31-2.78 2.5-2.2 0.2-2.8 0.8-3 3-0.14 1.51-0.92 2.97-1.75 3.25-0.83 0.28-1.5 1.63-1.5 3 0 1.38-0.67 2.72-1.5 3-0.83 0.28-1.5 1.17-1.5 2 0 0.83-0.67 1.5-1.5 1.5-0.83 0-1.5 0.67-1.5 1.5 0 0.83-0.67 1.5-1.5 1.5-0.83 0-1.5 0.67-1.5 1.5 0 0.83-0.67 1.5-1.5 1.5q-1.5 0-1.5 3 0 3-1.5 3c-0.83 0-1.5 0.67-1.5 1.5 0 0.83-0.67 1.5-1.5 1.5-0.83 0-1.5 0.67-1.5 1.5 0 0.83-0.67 1.5-1.5 1.5q-1.5 0-1.5 3 0 3-1.5 3c-0.83 0-1.5 0.67-1.5 1.5 0 0.83-0.67 1.5-1.5 1.5q-1.5 0-1.5 3 0 3-1.5 3c-0.83 0-1.5 0.67-1.5 1.5 0 0.83-0.67 1.5-1.5 1.5-0.83 0-1.5 0.67-1.5 1.5 0 0.83-0.67 1.5-1.5 1.5-0.83 0-1.5 0.67-1.5 1.5 0 0.83-0.67 1.5-1.5 1.5q-1.5 0-1.5 3 0 3-1.5 3-1.5 0-1.5 3 0 3-1.5 3c-0.83 0-1.5 0.67-1.5 1.5 0 0.83-0.67 1.5-1.5 1.5-0.83 0-1.5 0.67-1.5 1.5 0 0.83-0.45 1.5-1 1.5-0.55 0-2.82 1.91-5.04 4.25-2.23 2.34-4.03 4.81-4 5.5 0.02 0.69-1.31 2.6-2.96 4.25-1.65 1.65-3.02 3.79-3.04 4.75-0.03 0.96-1.38 2.88-3.02 4.25-1.63 1.38-2.97 3.29-2.96 4.25 0.01 0.96-3.34 5.01-7.44 9-4.84 4.69-7.48 8.04-7.5 9.5-0.02 1.24-0.71 2.47-1.54 2.75-0.83 0.28-1.5 1.4-1.5 2.5 0 1.13-2.58 4.49-5.97 7.75-3.28 3.16-5.98 6.54-6 7.5-0.02 0.96-2.04 3.66-4.5 6-2.46 2.34-4.51 5.15-4.55 6.25-0.03 1.1-1.4 3.13-3.04 4.5-1.63 1.38-2.98 3.4-2.98 4.5-0.01 1.1-2.03 3.91-4.49 6.25q-4.46 4.25-4.47 6.75c0 1.56-0.57 2.5-1.5 2.5-0.83 0-1.5 0.67-1.5 1.5 0 0.83-0.67 1.5-1.5 1.5q-1.5 0-1.5 3 0 3-1.5 3c-0.83 0-1.5 0.67-1.5 1.5 0 0.83-0.67 1.5-1.5 1.5-0.83 0-1.5 0.67-1.5 1.5 0 0.83-0.67 1.5-1.5 1.5q-1.5 0-1.5 3 0 3-1.5 3c-0.83 0-1.5 0.67-1.5 1.5 0 0.83-0.67 1.5-1.5 1.5q-1.5 0-1.5 3 0 3-1.5 3c-0.83 0-1.5 0.67-1.5 1.5 0 0.83-0.67 1.5-1.5 1.5q-1.5 0-1.5 3 0 3-1.5 3c-0.83 0-1.5 0.67-1.5 1.5 0 0.83-0.67 1.5-1.5 1.5-0.83 0-1.5 0.67-1.5 1.5 0 0.83-0.67 1.5-1.5 1.5q-1.5 0-1.5 3 0 3-1.5 3c-0.83 0-1.5 0.67-1.5 1.5 0 0.83-0.67 1.5-1.5 1.5q-1.5 0-1.5 3 0 3-1.5 3c-0.83 0-1.5 0.67-1.5 1.5 0 0.83-0.67 1.5-1.5 1.5q-1.5 0-1.5 3 0 3-1.5 3-1.5 0-1.5 3 0 3-1.5 3c-0.83 0-1.5 0.67-1.5 1.5 0 0.83-0.67 1.5-1.5 1.5q-1.5 0-1.5 3 0 3-1.5 3c-0.83 0-1.5 0.67-1.5 1.5 0 0.83-0.68 1.5-1.5 1.5-1.11 0-1.5 1.17-1.5 4.5 0 3.33-0.39 4.5-1.5 4.5-0.82 0-1.5 0.67-1.5 1.5 0 0.83-0.68 1.5-1.5 1.5-0.82 0-1.5 0.67-1.5 1.5 0 0.83-0.68 1.5-1.5 1.5-1.11 0-1.5 1.17-1.5 4.5 0 3.33-0.39 4.5-1.5 4.5-0.82 0-1.5 0.67-1.5 1.5 0 0.83-0.68 1.5-1.5 1.5q-1.5 0-1.5 3 0 3-1.5 3c-0.82 0-1.5 0.67-1.5 1.5 0 0.83-0.68 1.5-1.5 1.5q-1.5 0-1.5 3 0 3-1.5 3c-0.93 0-1.5 0.94-1.5 2.5 0 1.52-1.37 3.87-3.5 6q-3.49 3.5-3.48 6.25c0.01 1.76-1.07 3.83-3.02 5.75-1.67 1.65-3.01 3.67-2.98 4.5 0.04 0.83-0.65 2.17-1.52 3-0.87 0.83-1.59 2.4-1.59 3.5 0 1.1-1.33 3.13-2.97 4.5-2.24 1.88-2.98 3.36-3 6-0.02 2.64-0.76 4.12-3 6-2.24 1.88-2.98 3.36-3 6-0.02 2.64-0.76 4.12-3 6-1.69 1.43-2.97 3.47-2.96 4.75 0.01 1.24-0.66 2.47-1.48 2.75-0.97 0.32-1.52 1.83-1.54 4.25-0.04 2.9-0.72 4.31-3.02 6.25-2.24 1.88-2.98 3.36-3 6-0.02 2.64-0.76 4.12-3 6-2.33 1.96-2.97 3.31-2.96 6.25 0.01 2.46-0.5 3.92-1.48 4.25-0.82 0.28-1.52 1.51-1.54 2.75-0.03 1.24-1.38 3.38-3.02 4.75-2.56 2.15-2.98 3.2-3 7.5-0.02 4.3-0.44 5.35-3 7.5-2.61 2.19-2.97 3.14-2.96 7.75 0.02 3.79-0.4 5.39-1.48 5.75-0.82 0.28-1.52 1.51-1.54 2.75-0.03 1.24-1.38 3.38-3.02 4.75-2.56 2.15-2.98 3.2-3 7.5-0.02 4.3-0.44 5.35-3 7.5-2.61 2.19-2.97 3.14-2.96 7.75 0.02 3.79-0.4 5.39-1.48 5.75-0.82 0.28-1.5 1.63-1.5 3 0 1.38-0.68 2.72-1.5 3-0.82 0.28-1.5 1.63-1.5 3 0 1.38-0.68 2.72-1.5 3-1.08 0.36-1.5 1.96-1.48 5.75 0.01 4.61-0.35 5.56-2.96 7.75-2.79 2.34-2.98 2.96-3.02 9.75-0.03 5.76-0.35 7.25-1.54 7.25-0.82 0-1.5 0.67-1.5 1.5 0 0.83-0.68 1.5-1.5 1.5-1.2 0-1.5 1.5-1.5 7.5 0 6-0.3 7.5-1.5 7.5q-1.5 0-1.5 3 0 3-1.5 3-1.5 0-1.5 3 0 3-1.5 3c-1.22 0-1.5 1.67-1.5 9 0 7.33-0.28 9-1.5 9-0.82 0-1.5 0.67-1.5 1.5 0 0.83-0.68 1.5-1.5 1.5-1.22 0-1.5 1.67-1.5 9 0 7.33-0.28 9-1.5 9q-1.5 0-1.5 3 0 3-1.5 3c-1.11 0-1.5 1.17-1.5 4.5 0 3.33-0.39 4.5-1.5 4.5-1.24 0-1.5 1.83-1.5 10.5 0 8.67-0.26 10.5-1.5 10.5q-1.5 0-1.5 3c0 1.78-0.61 3.2-1.5 3.5-1.2 0.4-1.5 2.5-1.5 10.5 0 8-0.3 10.1-1.5 10.5q-1.5 0.5-1.5 4.5 0 4-1.5 4.5c-1.19 0.4-1.5 2.39-1.5 9.5 0 7.33-0.28 9-1.5 9-1.24 0-1.5 1.83-1.5 10.5 0 8.67-0.26 10.5-1.5 10.5-1.17 0-1.5 1.33-1.5 6 0 4.67-0.33 6-1.5 6-1.28 0-1.5 2.67-1.5 18 0 15.33-0.22 18-1.5 18-1.22 0-1.5 1.67-1.5 9 0 5.33-0.41 9-1 9-0.66 0-1 29.83-1 87.5 0 57.67 0.34 87.5 1 87.5 0.56 0 1 2.67 1 6 0 4.67 0.33 6 1.5 6 1.29 0 1.5 3 1.5 21 0 18 0.21 21 1.5 21 1.17 0 1.5 1.33 1.5 6 0 4.67 0.33 6 1.5 6 1.24 0 1.5 1.83 1.5 10.5 0 8.67 0.26 10.5 1.5 10.5 1.2 0 1.5 1.5 1.5 7.5 0 5.78 0.34 7.61 1.5 8 0.82 0.28 1.5 1.63 1.5 3 0 1.38 0.68 2.72 1.5 3 1.22 0.41 1.5 2.67 1.5 12 0 9.33 0.28 11.59 1.5 12 0.82 0.28 1.5 1.63 1.5 3 0 1.38 0.68 2.72 1.5 3 1.16 0.39 1.5 2.22 1.5 8 0 6 0.3 7.5 1.5 7.5 1.11 0 1.5 1.17 1.5 4.5 0 3.33 0.39 4.5 1.5 4.5q1.5 0 1.5 3 0 3 1.5 3c1.2 0 1.5 1.5 1.5 7.5 0 6 0.3 7.5 1.5 7.5q1.5 0 1.5 3 0 3 1.5 3c1.2 0 1.5 1.5 1.5 7.5 0 6 0.3 7.5 1.5 7.5q1.5 0 1.5 3 0 3 1.5 3 1.5 0 1.5 3 0 3 1.5 3c1.17 0 1.5 1.33 1.5 6 0 4.67 0.33 6 1.5 6 0.82 0 1.5 0.68 1.5 1.5 0 0.82 0.68 1.5 1.5 1.5 1.2 0 1.5 1.5 1.5 7.5 0 6 0.3 7.5 1.5 7.5 0.82 0 1.5 0.68 1.5 1.5 0 0.82 0.68 1.5 1.5 1.5 1.11 0 1.5 1.17 1.5 4.5 0 3.33 0.39 4.5 1.5 4.5 1.11 0 1.5 1.17 1.5 4.5 0 3.33 0.39 4.5 1.5 4.5 0.82 0 1.5 0.68 1.5 1.5 0 0.82 0.68 1.72 1.5 2 1.08 0.36 1.5 1.96 1.48 5.75-0.01 4.61 0.35 5.56 2.96 7.75 2.56 2.15 2.98 3.2 3 7.5 0.02 4.3 0.44 5.35 3 7.5 1.64 1.38 2.99 3.51 3.02 4.75 0.02 1.24 0.72 2.47 1.54 2.75 0.82 0.28 1.49 1.51 1.48 2.75-0.01 1.28 1.27 3.32 2.96 4.75 2.56 2.15 2.98 3.2 3 7.5 0.02 4.3 0.44 5.35 3 7.5 1.64 1.38 2.99 3.51 3.02 4.75 0.02 1.24 0.72 2.47 1.54 2.75 0.82 0.28 1.49 1.51 1.48 2.75-0.01 1.28 1.27 3.32 2.96 4.75 2.24 1.88 2.98 3.36 3 6 0.02 2.64 0.76 4.12 3 6 1.64 1.38 2.99 3.51 3.02 4.75 0.02 1.24 0.72 2.47 1.54 2.75 0.82 0.28 1.49 1.51 1.48 2.75-0.01 1.28 1.27 3.32 2.96 4.75 1.64 1.38 2.99 3.4 3 4.5 0.02 1.1 1.37 3.13 3 4.5 2.22 1.86 2.99 3.39 3.04 6 0.06 2.8 0.97 4.35 4.55 7.75 2.46 2.34 4.47 4.93 4.47 5.75 0 0.82 1.35 2.85 3 4.5 1.65 1.65 3 3.68 3 4.5 0 0.82 1.56 2.96 3.47 4.75 1.9 1.79 3.48 4.04 3.5 5 0.01 0.96 2.04 3.66 4.5 6 2.46 2.34 4.51 5.15 4.55 6.25 0.03 1.1 1.4 3.13 3.04 4.5 1.63 1.38 2.98 3.4 2.99 4.5 0.01 1.16 3.17 5.06 7.49 9.25 4.1 3.99 7.47 8.04 7.49 9 0.01 0.96 2.04 3.66 4.5 6 2.46 2.34 4.48 5.04 4.5 6 0.01 0.96 2.04 3.66 4.5 6 2.46 2.34 4.47 4.7 4.47 5.25 0 0.55 0.67 1 1.5 1 0.83 0 1.5 0.68 1.5 1.5 0 0.82 0.67 1.5 1.5 1.5 0.83 0 1.5 0.68 1.5 1.5 0 0.82 0.67 1.5 1.5 1.5 0.83 0 1.5 0.68 1.5 1.5 0 0.82 0.67 1.5 1.5 1.5q1.5 0 1.5 3c0 2.67 0.33 3 3 3 2.67 0 3 0.33 3 3q0 3 1.5 3c0.83 0 1.5 0.68 1.5 1.5q0 1.5 3 1.5c2.67 0 3 0.33 3 3 0 2.67 0.33 3 3 3 2.67 0 3 0.33 3 3q0 3 1.5 3c0.83 0 1.5 0.68 1.5 1.5 0 0.82 0.67 1.5 1.5 1.5 0.83 0 1.5 0.68 1.5 1.5 0 0.82 0.67 1.5 1.5 1.5 0.83 0 1.5 0.68 1.5 1.5 0 0.82 0.67 1.5 1.5 1.5 0.83 0 1.5 0.68 1.5 1.5 0 0.82 0.67 1.5 1.5 1.5 0.83 0 1.5 0.68 1.5 1.5 0 0.82 0.67 1.5 1.5 1.5 0.83 0 1.5 0.68 1.5 1.5 0 0.82 0.67 1.5 1.5 1.5 0.83 0 1.5 0.68 1.5 1.5 0 0.82 0.67 1.5 1.5 1.5 0.83 0 1.5 0.68 1.5 1.5 0 0.82 0.67 1.5 1.5 1.5 0.83 0 1.5 0.68 1.5 1.5 0 0.82 0.67 1.5 1.5 1.5 0.83 0 1.5 0.68 1.5 1.5 0 0.82 0.67 1.5 1.5 1.5 0.83 0 1.5 0.68 1.5 1.5 0 0.82 0.45 1.5 1 1.5 0.55 0 3.59 2.69 6.75 5.97 3.61 3.75 6.59 5.98 8 6 1.72 0.02 2.31 0.68 2.5 2.78 0.18 2.02 0.85 2.82 2.5 3 1.32 0.15 6.58 4.58 12.75 10.75 6.33 6.33 11.29 10.5 12.5 10.5 1.1 0 2.23 0.68 2.5 1.5 0.27 0.82 1.51 1.51 2.75 1.52 1.44 0.02 4.5 2.36 8.5 6.5 3.44 3.57 6.92 6.48 7.75 6.48 0.83 0 3.41 2.01 5.75 4.47 2.34 2.46 5.15 4.51 6.25 4.55 1.1 0.03 3.13 1.4 4.5 3.04 1.38 1.63 3.29 2.97 4.25 2.96 0.96-0.01 3.66 1.99 6 4.45 2.34 2.46 5.15 4.51 6.25 4.55 1.1 0.03 3.13 1.4 4.5 3.04 1.38 1.63 3.4 2.98 4.5 3 1.1 0.01 3.13 1.36 4.5 3 1.43 1.69 3.47 2.97 4.75 2.96 1.24-0.01 2.48 0.66 2.75 1.48 0.27 0.82 1.51 1.52 2.75 1.54 1.24 0.03 3.38 1.38 4.75 3.02 1.38 1.63 3.4 2.98 4.5 3 1.1 0.01 3.13 1.36 4.5 3 1.38 1.63 3.4 2.98 4.5 3 1.1 0.01 3.13 1.36 4.5 3 1.43 1.69 3.47 2.97 4.75 2.96 1.24-0.01 2.48 0.66 2.75 1.48 0.27 0.82 1.51 1.52 2.75 1.54 1.24 0.03 3.38 1.38 4.75 3.02 1.88 2.24 3.36 2.98 6 3 2.64 0.02 4.12 0.76 6 3 1.43 1.69 3.47 2.97 4.75 2.96 1.24-0.01 2.48 0.66 2.75 1.48 0.27 0.82 1.51 1.52 2.75 1.54 1.24 0.03 3.38 1.38 4.75 3.02 1.91 2.27 3.32 2.96 6 2.94 2.68-0.02 4.09 0.67 6 2.94 1.38 1.64 3.51 2.99 4.75 3.02 1.24 0.02 2.48 0.72 2.75 1.54 0.3 0.89 1.72 1.5 3.5 1.5q3 0 3 1.5c0 0.82 0.67 1.5 1.5 1.5 0.83 0 1.5 0.68 1.5 1.5 0 1.11 1.17 1.5 4.5 1.5 3.33 0 4.5 0.39 4.5 1.5 0 0.82 0.67 1.5 1.5 1.5 0.83 0 1.5 0.68 1.5 1.5 0 1.11 1.17 1.5 4.5 1.5 3.33 0 4.5 0.39 4.5 1.5q0 1.5 3 1.5 3 0 3 1.5c0 0.82 0.67 1.5 1.5 1.5 0.83 0 1.5 0.68 1.5 1.5 0 1.11 1.17 1.5 4.5 1.5 3.33 0 4.5 0.39 4.5 1.5 0 0.82 0.67 1.5 1.5 1.5 0.83 0 1.5 0.68 1.5 1.5 0 1.17 1.33 1.5 6 1.5 4.67 0 6 0.33 6 1.5 0 0.82 0.67 1.5 1.5 1.5 0.83 0 1.5 0.68 1.5 1.5 0 1.11 1.17 1.5 4.5 1.5 3.33 0 4.5 0.39 4.5 1.5q0 1.5 3 1.5 3 0 3 1.5 0 1.5 3 1.5 3 0 3 1.5c0 1.17 1.33 1.5 6 1.5 4.67 0 6 0.33 6 1.5 0 0.82 0.67 1.5 1.5 1.5 0.83 0 1.5 0.68 1.5 1.5 0 1.17 1.33 1.5 6 1.5 4.67 0 6 0.33 6 1.5 0 0.82 0.67 1.5 1.5 1.5 0.83 0 1.5 0.68 1.5 1.5 0 1.11 1.17 1.5 4.5 1.5 3.33 0 4.5 0.39 4.5 1.5 0 1.15 1.32 1.51 5.75 1.54 5.13 0.04 6.02 0.37 8.25 3.02 2.38 2.83 2.87 2.97 10.25 2.96 7.53-0.02 7.85 0.08 11.25 3.48 2.44 2.44 4.4 3.5 6.5 3.5 1.65 0 3.67 0.68 4.5 1.5 0.93 0.93 3.39 1.5 6.5 1.5 3.56 0 5.14 0.43 5.5 1.5 0.27 0.82 1.63 1.5 3 1.5 1.38 0 2.73 0.68 3 1.5 0.39 1.18 2.33 1.5 9 1.5 6.67 0 8.61 0.32 9 1.5 0.27 0.82 1.63 1.5 3 1.5 1.38 0 2.73 0.68 3 1.5 0.38 1.14 2.17 1.5 7.5 1.5 5.33 0 7.12 0.36 7.5 1.5 0.36 1.09 2 1.5 6 1.5 4 0 5.64 0.41 6 1.5 0.28 0.82 1.63 1.5 3 1.5 1.38 0 2.72 0.68 3 1.5 0.41 1.22 2.67 1.5 12 1.5 9.33 0 11.59 0.28 12 1.5 0.28 0.82 1.63 1.5 3 1.5 1.38 0 2.72 0.68 3 1.5 0.41 1.22 2.67 1.5 12 1.5 9.33 0 11.59 0.28 12 1.5 0.36 1.09 2 1.5 6 1.5 4 0 5.64 0.41 6 1.5 0.38 1.14 2.17 1.5 7.5 1.5 5.33 0 7.12 0.36 7.5 1.5 0.37 1.12 2.07 1.5 6.75 1.49 3.44-0.01 7.26-0.24 8.5-0.5 1.24-0.27 2.23-1.05 2.21-1.74-0.02-0.69-0.7-1.7-1.52-2.25-1.2-0.81-1.55-4.7-1.85-20.5-0.2-10.72-0.92-22.88-1.59-27-0.94-5.83-1.11-104.13-0.74-442 0.39-367.79 0.68-434.98 1.85-437.65 1.2-2.73 1.19-3.37-0.11-4.8-0.9-0.98-3-1.62-5.25-1.59-3.31 0.03-4.06 0.54-6.38 4.29-1.45 2.34-25.66 27.2-53.79 55.25-28.13 28.05-61.26 60.84-73.62 72.86-12.35 12.03-29.66 29.04-38.46 37.81-8.8 8.77-21.68 21.66-28.61 28.64-6.94 6.98-18.41 18.4-25.5 25.38-7.09 6.98-18.6 18.46-25.57 25.5-6.98 7.05-26.23 26.09-42.78 42.31-16.55 16.22-44.88 44.12-62.96 62-18.08 17.87-33.7 33.23-34.72 34.13-1.02 0.9-4.37 4.27-7.44 7.5-3.07 3.23-10.9 10.82-17.4 16.87-6.51 6.05-12.99 12.2-14.42 13.66-1.43 1.46-4.29 3.37-6.35 4.25-2.06 0.87-4.54 2.44-5.5 3.48-0.96 1.04-5.35 3.8-9.75 6.14-6.49 3.45-9.51 4.42-16 5.14-4.4 0.48-14.75 0.86-23 0.83-8.25-0.02-17.92-0.48-21.5-1.01-3.98-0.6-7.86-1.91-10-3.4-1.92-1.33-5.52-2.99-8-3.68-2.48-0.69-5.4-2.03-6.5-2.98-1.1-0.96-3.8-2.74-6-3.97-2.2-1.23-5.74-3.63-7.86-5.35-2.13-1.71-5.68-4.68-7.91-6.61-2.22-1.93-6.37-6.43-9.23-10-2.85-3.57-6-8.07-6.98-10-0.99-1.93-2.86-4.74-4.16-6.25-1.31-1.52-2.8-5.09-3.34-8-0.54-2.89-2.2-7.05-3.7-9.25-2.49-3.67-2.8-5.21-3.7-18.5-0.65-9.6-0.65-18.05 0.02-25 0.79-8.33 1.55-11.48 3.68-15.25 1.47-2.61 3-6.89 3.39-9.5 0.39-2.61 1.69-5.88 2.89-7.25 1.2-1.38 3.36-5.09 4.79-8.25 1.44-3.16 3.22-6.09 3.96-6.5 0.75-0.41 1.81-1.65 2.37-2.75 0.56-1.1 4.98-5.82 9.82-10.5 4.84-4.68 10.53-10.07 12.64-12 2.11-1.93 7.7-7.1 12.42-11.5 4.73-4.4 13.41-12.72 19.3-18.5 5.89-5.78 17.23-16.8 25.2-24.5 7.97-7.7 20.09-19.36 26.94-25.91 6.85-6.55 24.54-23.65 39.31-38 14.77-14.35 33.44-32.5 41.5-40.34 8.06-7.84 15.32-14.91 16.15-15.73 0.83-0.81 12.52-12.5 26-25.97 13.48-13.48 24.84-24.86 25.26-25.28 0.41-0.42 4.97-5.05 10.13-10.27 5.16-5.22 10.22-10.24 11.25-11.15 1.02-0.91 2.87-2.71 4.11-4 1.24-1.29 2.82-2.88 3.5-3.52 0.69-0.64 4.1-4.02 7.58-7.5 3.48-3.48 6.86-6.89 7.5-7.58 0.64-0.68 2.23-2.26 3.52-3.5 1.29-1.24 3.09-3.1 4-4.14 0.91-1.04 2.49-2.62 3.51-3.5 1.02-0.89 60.31-60 131.75-131.36 71.44-71.36 130.56-131.1 131.39-132.75 1.3-2.6 1.54-17.59 1.79-112.75 0.24-92.97 0.51-110.45 1.75-114.36 1.33-4.21 1.31-4.84-0.29-7.25l-1.75-2.64c-7.79 2.97-9.8 4.56-11.24 7-1.13 1.92-15.31 16.55-31.51 32.5-16.21 15.95-52.54 51.95-80.75 80-28.22 28.05-53.7 53.32-56.65 56.16-2.94 2.84-6.11 5.99-7.05 7-0.93 1.01-8.73 8.59-17.33 16.84-8.6 8.25-24.71 24.08-35.8 35.19-11.09 11.1-20.78 20.78-21.53 21.5-0.74 0.72-2.77 2.7-4.5 4.4-1.73 1.7-7.19 6.69-12.14 11.1-4.95 4.4-17.34 16.06-27.54 25.91-10.19 9.84-24.14 23.23-31 29.76-6.85 6.52-19.38 18.44-27.83 26.5-8.46 8.05-23.63 22.74-33.71 32.64-10.08 9.9-19.81 19.22-21.62 20.71-1.82 1.49-5.44 4.3-8.05 6.25-2.61 1.95-6.21 4.29-8 5.2-1.79 0.92-4.83 2.85-6.75 4.29-1.92 1.44-5.41 2.94-7.75 3.33-2.34 0.4-6.39 1.85-9 3.23-2.65 1.41-8.07 3.01-12.25 3.62-4.62 0.68-14.41 0.88-25.5 0.52-16.39-0.53-18.4-0.79-22.5-2.95-2.48-1.31-6.98-3.09-10-3.96-3.02-0.87-6.17-2.35-7-3.29-0.83-0.94-3.98-2.95-7-4.47-3.02-1.52-6.4-3.73-7.5-4.9-1.1-1.18-2.45-2.15-3-2.15-0.55-0.01-4.94-4.04-9.75-8.97-4.81-4.93-8.74-9.3-8.72-9.71 0.01-0.41-1.24-2.55-2.8-4.75-1.55-2.2-4.71-7.83-7.03-12.5-3.21-6.49-4.7-11.22-6.29-20-1.14-6.33-2.55-14.65-3.13-18.5-0.91-6.04-0.77-8.31 1.06-16.5 1.17-5.22 2.51-12.65 2.97-16.5 0.53-4.31 1.65-8.15 2.93-10 1.15-1.65 2.95-5.03 4.01-7.5 1.06-2.47 3.24-5.96 4.84-7.74 1.6-1.79 6.79-7.19 11.53-12 4.74-4.82 13.89-13.71 20.33-19.76 6.44-6.05 14.98-14.15 18.98-18 3.99-3.85 17.33-16.67 29.64-28.5 12.3-11.83 26.21-25.12 30.9-29.54 4.69-4.42 12.36-11.48 17.03-15.68 4.67-4.21 16.69-15.66 26.71-25.46 10.01-9.8 25.22-24.57 33.8-32.82 8.58-8.25 25.39-24.67 37.36-36.5 11.97-11.83 24.2-23.79 27.19-26.59 2.99-2.8 6.18-5.95 7.09-7 0.91-1.05 2.71-2.92 4-4.16 1.29-1.24 2.8-2.69 3.35-3.22 0.55-0.52 4.76-4.46 9.36-8.74 4.59-4.29 16.79-16.12 27.09-26.29 10.3-10.17 26.07-25.47 35.05-34 8.97-8.53 21.28-20.22 27.36-26 6.07-5.78 24.25-23.55 40.4-39.5 16.15-15.95 58.25-57.9 93.55-93.23 35.3-35.33 73.86-74.2 85.69-86.39 11.83-12.19 23.08-23.85 25-25.91 1.92-2.05 7.55-8.17 12.5-13.59 4.95-5.42 14.63-15.42 21.5-22.21 6.93-6.85 14.51-13.37 17-14.64 2.47-1.25 5.17-3.03 6-3.95 0.83-0.92 2.17-1.63 3-1.58 0.83 0.04 3.08 1.45 5 3.12 1.92 1.67 10.45 9.64 18.94 17.71 8.49 8.07 24.01 23 34.49 33.17 10.48 10.17 51.23 50.79 90.56 90.25 39.33 39.46 83.89 84.31 99.01 99.67 15.13 15.36 31.33 31.4 36 35.66 4.67 4.25 16.53 15.43 26.34 24.83 9.82 9.4 26.11 25.19 36.2 35.09 10.1 9.9 19.17 18.75 20.16 19.68 0.99 0.92 4.39 4.29 7.55 7.5 3.16 3.2 27.12 26.97 53.25 52.82 26.13 25.85 57.66 56.9 70.07 69 12.41 12.1 24.24 23.58 26.28 25.5 2.04 1.92 10.6 9.8 19.01 17.5 8.41 7.7 16.5 14.79 17.97 15.76 1.47 0.97 3.82 2.99 5.23 4.5 1.42 1.51 6.12 5.89 10.46 9.74 4.35 3.85 11.07 10.01 14.94 13.68 3.87 3.68 13.34 12.13 21.04 18.79 7.7 6.66 17.15 15.01 21 18.54 3.85 3.53 7.9 7.06 9 7.83 1.1 0.78 4.03 3.51 6.5 6.08 2.47 2.57 6.18 6.56 8.24 8.88 2.05 2.31 5.34 6.23 7.31 8.7 1.96 2.47 3.82 5.4 4.12 6.5 0.3 1.1 1.83 3.35 3.4 5 1.56 1.65 3.57 5.03 4.46 7.5 0.89 2.47 2.71 5.74 4.04 7.25 1.72 1.94 2.61 4.44 3.04 8.5 0.34 3.16 1.02 7.78 1.51 10.25 0.5 2.47 1.4 6.97 2.01 10 0.96 4.75 0.7 8.16-1.9 25-2.67 17.32-3.36 20.06-6.13 24.5-1.72 2.75-3.11 5.67-3.08 6.5 0.02 0.83-1.77 4.2-3.99 7.5-2.21 3.3-4.03 6.34-4.03 6.75 0 0.41-4 4.69-8.88 9.5-4.89 4.81-10.4 9.74-12.25 10.95-1.86 1.21-5.62 3.41-8.37 4.89-2.75 1.47-6.12 3.66-7.5 4.85-1.6 1.39-4.66 2.46-8.5 2.97-3.3 0.44-8.92 1.97-12.5 3.4-5.96 2.38-7.74 2.6-21.5 2.64-13.96 0.05-15.52-0.14-22.5-2.71-4.12-1.52-9.75-3.08-12.5-3.46-3.11-0.43-6.13-1.64-8-3.21-1.65-1.38-5.03-3.12-7.5-3.85-2.47-0.74-6.19-2.89-8.25-4.78-2.06-1.89-4.09-3.43-4.5-3.42-0.41 0.02-3.67-2.8-7.25-6.27-3.58-3.46-7.62-7.01-9-7.9-1.37-0.89-7.9-6.69-14.5-12.89-6.6-6.2-15.15-14.13-19-17.62-3.85-3.49-12.06-11.18-18.25-17.09-6.19-5.91-17.09-16.6-24.24-23.75-7.14-7.15-13.32-13.35-13.74-13.77-0.43-0.43-8.19-7.96-17.27-16.74-9.08-8.78-18.53-18.04-21-20.56-2.47-2.53-8.71-8.72-13.86-13.77-5.16-5.04-14.43-14.11-20.62-20.16-6.19-6.05-16.59-15.95-23.1-22-6.52-6.05-16.36-15.27-21.88-20.5-5.52-5.22-12.56-11.97-15.63-15-3.08-3.02-11.1-10.67-17.83-17-6.74-6.33-31.79-30.85-55.67-54.5-23.89-23.65-54.11-53.63-67.17-66.61-13.06-12.99-24.41-24.37-25.24-25.29-0.83-0.92-4.42-4.49-8-7.92-3.58-3.43-6.95-7.06-7.5-8.05-0.65-1.17-2.6-2-5.5-2.35-4.2-0.5-4.55-0.36-5.25 2.09-0.47 1.67-0.19 4.01 0.77 6.38 1.33 3.29 1.47 17.11 1.15 113.75-0.37 109.92-0.37 110 1.73 114.79 1.16 2.63 2.44 4.77 2.85 4.75 0.41-0.02 8.29 7.6 17.5 16.93 9.21 9.33 22.5 22.72 29.53 29.75 7.02 7.03 13.46 13.45 14.3 14.28 0.85 0.83 4.22 4.2 7.5 7.5 3.28 3.3 6.65 6.67 7.49 7.5 0.83 0.83 19.02 19.05 40.41 40.5 21.39 21.45 39.38 39.45 39.97 40 0.6 0.55 7.1 7.08 14.45 14.5 7.35 7.42 17.58 17.66 22.73 22.75 5.15 5.1 9.82 9.73 10.37 10.31 0.55 0.58 5.38 5.42 10.72 10.75 5.35 5.33 14 13.97 19.23 19.19 5.22 5.22 10.07 10.09 10.77 10.81 0.71 0.73 4.2 4.22 7.78 7.77 3.58 3.55 6.95 6.91 7.5 7.46 0.55 0.56 5.28 5.28 10.5 10.5 5.22 5.21 9.84 9.81 10.26 10.22 0.41 0.41 5.05 5.02 10.31 10.24 5.25 5.22 10.54 10.49 11.74 11.69 1.2 1.21 4.55 4.58 7.44 7.5 2.89 2.92 20.89 20.95 40 40.07 19.11 19.12 42.05 42.07 50.98 51 8.92 8.93 28.83 28.84 44.24 44.24 15.41 15.4 28.36 28.37 28.77 28.81 0.42 0.45 3.56 3.6 6.98 7 3.43 3.41 16.79 16.76 29.69 29.69 12.9 12.93 27.77 27.78 33.03 33 5.27 5.22 10.88 10.85 12.48 12.5 1.6 1.65 3.78 5.03 4.85 7.5 1.06 2.47 2.74 5.18 3.72 6 0.98 0.82 2.86 3.75 4.19 6.5 1.33 2.75 3.3 6.57 4.37 8.5 1.07 1.93 1.95 5.19 1.95 7.25 0 2.06 1.13 7.12 2.5 11.25 2.09 6.26 2.5 9.4 2.5 19 0 9.17-0.41 12.51-2 16.5-1.1 2.75-2.32 7.81-2.72 11.25-0.47 4.13-1.6 7.6-3.33 10.25-1.44 2.2-3.12 5.57-3.74 7.5-0.62 1.93-2.1 4.4-3.29 5.5-1.18 1.1-3.18 4.25-4.43 7-1.4 3.07-5.32 8.04-10.14 12.87-4.32 4.33-9.2 8.55-10.85 9.37-1.65 0.82-3.9 2.32-5 3.32-1.1 1.01-3.8 2.59-6 3.51-2.2 0.93-5.35 2.73-7 4-1.65 1.28-6.04 3.02-9.75 3.88-3.71 0.85-8.66 2.56-11 3.8-3.93 2.08-5.55 2.25-21.25 2.25-16.24 0-17.24-0.12-22.5-2.61-3.03-1.43-8.09-3.12-11.25-3.75-3.25-0.64-6.95-2.17-8.5-3.5-1.51-1.29-4.78-3.24-7.25-4.32-2.47-1.08-5.85-3.15-7.5-4.62-1.65-1.46-4.58-4-6.5-5.65-1.92-1.64-10.6-9.86-19.29-18.27-8.68-8.4-32.98-32.44-54-53.41-21.01-20.97-40.6-40.54-43.53-43.5-2.92-2.95-6.07-6.11-7-7.02-0.92-0.91-2.69-2.71-3.93-4-1.24-1.29-2.82-2.91-3.5-3.59-0.69-0.69-3.92-3.84-7.19-7-3.26-3.17-8.44-8.4-11.5-11.63-3.06-3.23-6.41-6.6-7.44-7.5-1.04-0.9-7.66-7.48-14.71-14.63-7.06-7.15-13.41-13.58-14.12-14.3-0.71-0.71-23.57-23.56-50.79-50.77-27.22-27.21-50.24-50.25-51.15-51.2-0.91-0.95-2.71-2.74-4-3.98-1.29-1.24-2.91-2.82-3.6-3.5-0.68-0.69-2.26-2.31-3.5-3.61-1.24-1.3-4.67-4.68-7.63-7.5-2.96-2.83-11.29-11.14-18.5-18.47-7.22-7.33-28.98-29.27-48.37-48.75-19.39-19.48-35.92-36.77-36.75-38.42-0.83-1.65-2.62-3.45-4-4-1.78-0.71-3.29-0.63-5.25 0.27-2.43 1.13-2.71 1.74-2.41 5.25 0.18 2.19 0.63 19.95 1 39.48 0.36 19.53 0.61 222.25 0.54 450.5l-0.12 415c-4.87 15.79-5.68 17.21-8.29 18.5-1.68 0.82-3.04 1.72-3.03 2 0.01 0.28 1.72 0.83 3.79 1.24 2.07 0.41 5.46 0.74 7.52 0.75 2.67 0.01 3.75-0.42 3.75-1.49 0-1.22 1.67-1.5 9-1.5 7.11 0 9.1-0.31 9.5-1.5 0.38-1.14 2.17-1.5 7.5-1.5 5.33 0 7.12-0.36 7.5-1.5 0.41-1.22 2.67-1.5 12-1.5 9.33 0 11.59-0.28 12-1.5q0.5-1.5 4.5-1.5 4 0 4.5-1.5c0.41-1.22 2.67-1.5 12-1.5 9.33 0 11.59-0.28 12-1.5 0.28-0.82 1.63-1.5 3-1.5 1.38 0 2.72-0.68 3-1.5 0.36-1.09 2-1.5 6-1.5 4 0 5.64-0.41 6-1.5 0.38-1.14 2.17-1.5 7.5-1.5 5.33 0 7.12-0.36 7.5-1.5 0.28-0.82 1.63-1.5 3-1.5 1.38 0 2.72-0.68 3-1.5 0.39-1.17 2.3-1.5 8.75-1.48 7.93 0.01 8.35-0.1 10.75-2.96 2.27-2.7 3.08-2.98 8.68-3.02q6.17-0.04 7.68-1.54c0.82-0.83 2.88-1.5 4.57-1.5 2.18 0 4.09-1.02 6.57-3.5 3.28-3.28 3.9-3.5 10-3.5 4.89 0 6.62-0.37 7-1.5 0.28-0.82 1.63-1.5 3-1.5 1.38 0 2.72-0.68 3-1.5 0.37-1.11 2.06-1.5 6.5-1.5 4.67 0 6-0.33 6-1.5q0-1.5 3-1.5 3 0 3-1.5c0-0.82 0.67-1.5 1.5-1.5 0.83 0 1.5-0.68 1.5-1.5 0-1.2 1.5-1.5 7.5-1.5 6 0 7.5-0.3 7.5-1.5 0-0.82 0.67-1.5 1.5-1.5 0.83 0 1.5-0.68 1.5-1.5 0-1.17 1.33-1.5 6-1.5 4.67 0 6-0.33 6-1.5 0-0.82 0.67-1.5 1.5-1.5 0.83 0 1.5-0.68 1.5-1.5q0-1.5 3-1.5 3 0 3-1.5c0-1.11 1.17-1.5 4.5-1.5 3.33 0 4.5-0.39 4.5-1.5q0-1.5 3-1.5 3 0 3-1.5c0-1.11 1.17-1.5 4.5-1.5 3.33 0 4.5-0.39 4.5-1.5 0-0.82 0.67-1.5 1.5-1.5 0.83 0 1.5-0.68 1.5-1.5 0-1.11 1.17-1.5 4.5-1.5 3.33 0 4.5-0.39 4.5-1.5q0-1.5 3-1.5 3 0 3-1.5 0-1.5 3-1.5 3 0 3-1.5 0-1.5 3-1.5 3 0 3-1.5 0-1.5 3-1.5 3 0 3-1.5 0-1.5 3-1.5 3 0 3-1.5c0-0.82 0.67-1.5 1.5-1.5 0.83 0 1.5-0.68 1.5-1.5q0-1.5 3-1.5 3 0 3-1.5c0-1.11 1.17-1.5 4.5-1.5 4.18 0 4.55-0.22 5.25-3.02 0.71-2.87 1.01-3.02 5.75-2.99 4.34 0.04 5.33-0.35 7.5-2.93 1.38-1.64 3.51-2.99 4.75-3.02 1.24-0.02 2.47-0.72 2.75-1.54 0.28-0.82 1.51-1.49 2.75-1.48 1.28 0.01 3.32-1.27 4.75-2.96 1.38-1.64 3.4-2.99 4.5-3 1.1-0.02 3.13-1.37 4.5-3 1.38-1.64 3.51-2.99 4.75-3.02 1.24-0.02 2.47-0.72 2.75-1.54 0.28-0.82 1.51-1.49 2.75-1.48 1.28 0.01 3.32-1.27 4.75-2.96 1.38-1.64 3.4-2.99 4.5-3 1.1-0.02 3.13-1.37 4.5-3 1.38-1.64 3.4-3.01 4.5-3.04 1.1-0.04 3.91-2.09 6.25-4.55 2.34-2.46 5.04-4.46 6-4.45 0.96 0.01 2.88-1.33 4.25-2.96 1.38-1.64 3.4-2.99 4.5-3 1.1-0.02 3.13-1.37 4.5-3 1.38-1.64 3.4-2.99 4.5-3 1.1-0.02 3.13-1.37 4.5-3 1.38-1.64 3.51-2.99 4.75-3.02 1.24-0.02 2.59-0.67 3-1.44 0.41-0.78 1.88-1.56 3.25-1.75 1.9-0.27 2.56-1.01 2.75-3.1 0.19-2.1 0.78-2.76 2.5-2.78 1.34-0.01 3.96-1.83 6.5-4.5 2.34-2.46 4.92-4.47 5.75-4.47 0.83 0 4.31-2.91 7.75-6.46 3.44-3.55 7.04-6.47 8-6.5 0.96-0.02 3.66-2.05 6-4.51 2.54-2.67 5.16-4.49 6.5-4.5 1.66-0.02 2.45-0.82 3-3.05 0.52-2.1 1.36-3.03 2.75-3.05 1.22-0.01 6.59-4.69 13.75-11.97 6.46-6.58 12.54-11.98 13.5-12 0.96-0.02 6.36-4.75 12-10.5 5.64-5.75 10.7-10.46 11.25-10.46 0.55 0 1-0.68 1-1.5 0-0.82 0.67-1.5 1.5-1.5 0.83 0 1.5-0.68 1.5-1.5 0-0.82 0.67-1.5 1.5-1.5 0.83 0 1.5-0.68 1.5-1.5 0-0.82 0.67-1.5 1.5-1.5 0.83 0 1.5-0.68 1.5-1.5 0-0.82 0.67-1.5 1.5-1.5 0.83 0 1.5-0.68 1.5-1.5 0-0.82 0.67-1.5 1.5-1.5 0.83 0 1.5-0.68 1.5-1.5 0-0.82 0.67-1.5 1.5-1.5q1.5 0 1.5-3 0-3 1.5-3c0.83 0 1.5-0.68 1.5-1.5 0-0.82 0.67-1.5 1.5-1.5 0.83 0 1.5-0.68 1.5-1.5 0-0.82 0.67-1.5 1.5-1.5 0.83 0 1.5-0.68 1.5-1.5 0-0.82 0.67-1.5 1.5-1.5 0.83 0 1.5-0.68 1.5-1.5 0-0.82 0.67-1.5 1.5-1.5 0.83 0 1.5-0.68 1.5-1.5 0-0.82 0.67-1.5 1.5-1.5 0.83 0 1.52-0.56 1.54-1.25 0.03-0.69 1.38-2.38 3.02-3.75 1.69-1.43 2.97-3.47 2.96-4.75-0.02-1.73 0.61-2.31 2.73-2.5 2.02-0.18 2.82-0.85 3-2.5 0.14-1.24 2.94-4.84 6.22-8 3.75-3.61 5.98-6.59 6-8 0.02-1.24 0.7-2.47 1.53-2.75 0.83-0.28 1.5-1.63 1.5-3 0-2 0.55-2.55 2.75-2.75 2.02-0.18 2.82-0.85 3-2.5 0.14-1.24 2.26-4.16 4.72-6.5 2.46-2.34 4.48-5.15 4.49-6.25 0-1.1 1.35-3.13 2.98-4.5 1.94-1.63 2.99-3.46 3.02-5.25 0.02-1.76 0.58-2.75 1.54-2.75 0.83 0 1.5-0.68 1.5-1.5 0-0.82 0.67-1.5 1.5-1.5 0.83 0 1.5-0.68 1.5-1.5 0-0.82 0.67-1.5 1.5-1.5q1.5 0 1.5-3 0-3 1.5-3c0.83 0 1.5-0.68 1.5-1.5 0-0.82 0.67-1.5 1.5-1.5q1.5 0 1.5-3 0-3 1.5-3c0.83 0 1.5-0.68 1.5-1.5 0-0.82 0.67-1.5 1.5-1.5q1.5 0 1.5-3 0-3 1.5-3c0.83 0 1.8-1.24 2.17-2.75 0.37-1.51 1.27-3.31 2-4 0.73-0.69 1.33-1.93 1.33-2.75 0-0.82 0.67-2.18 1.5-3 0.83-0.82 1.5-2.4 1.5-3.5 0-1.45 0.75-2.07 2.75-2.25 2.43-0.22 2.79-0.71 3.11-4.25 0.26-2.9 1.15-4.69 3.26-6.5 1.61-1.39 2.89-3.5 2.89-4.75-0.01-1.24 0.66-2.47 1.49-2.75 0.83-0.28 1.52-1.51 1.54-2.75 0.03-1.24 1.38-3.38 3.02-4.75 2.24-1.88 2.98-3.36 3-6 0.02-2.64 0.76-4.12 3-6 2.24-1.88 2.98-3.36 3-6 0.02-2.64 0.76-4.12 3-6 1.69-1.43 2.97-3.47 2.96-4.75-0.01-1.24 0.66-2.47 1.48-2.75 0.97-0.32 1.52-1.83 1.54-4.25 0.04-2.9 0.72-4.31 3.02-6.25 2.33-1.96 2.97-3.31 2.96-6.25-0.01-2.46 0.5-3.92 1.48-4.25 0.82-0.28 1.5-1.63 1.5-3 0-1.38 0.68-2.72 1.5-3 0.82-0.28 1.5-1.63 1.5-3 0-1.38 0.68-2.72 1.5-3 0.98-0.33 1.49-1.79 1.48-4.25-0.01-2.94 0.63-4.29 2.96-6.25 2.42-2.03 2.98-3.29 3.02-6.75 0.03-3.09 0.45-4.25 1.54-4.25q1.5 0 1.5-3 0-3 1.5-3c1.11 0 1.5-1.17 1.5-4.5 0-3.33 0.39-4.5 1.5-4.5q1.5 0 1.5-3 0-3 1.5-3 1.5 0 1.5-3 0-3 1.5-3c1.17 0 1.5-1.33 1.5-6 0-4.67 0.33-6 1.5-6q1.5 0 1.5-3 0-3 1.5-3c1.17 0 1.5-1.33 1.5-6 0-4.67 0.33-6 1.5-6q1.5 0 1.5-3 0-3 1.5-3 1.5 0 1.5-3 0-3 1.5-3c1.2 0 1.5-1.5 1.5-7.5 0-6 0.3-7.5 1.5-7.5q1.5 0 1.5-3 0-3 1.5-3c1.2 0 1.5-1.5 1.5-7.5 0-6 0.3-7.5 1.5-7.5 1.11 0 1.5-1.17 1.5-4.5 0-3.11 0.46-4.65 1.5-5q1.5-0.5 1.5-4.5 0-4 1.5-4.5c1.18-0.39 1.5-2.33 1.5-9 0-6.67 0.32-8.61 1.5-9 0.82-0.28 1.5-1.63 1.5-3 0-1.38 0.68-2.72 1.5-3 1.23-0.41 1.5-2.89 1.5-14 0-11.33 0.24-13.5 1.5-13.5q1.5 0 1.5-3 0-3 1.5-3c1.24 0 1.5-1.83 1.5-10.5 0-8.67 0.26-10.5 1.5-10.5 1.24 0 1.5-1.83 1.5-10.5 0-8.67 0.26-10.5 1.5-10.5 1.17 0 1.5-1.33 1.5-6 0-4.67 0.33-6 1.5-6 1.3 0 1.5-3.67 1.5-27 0-23.33 0.2-27 1.5-27 1.27 0 1.5-2.5 1.5-16.5 0-10.33 0.37-16.5 1-16.5 0.65 0 1-11.83 1-33.5 0-21.67-0.35-33.5-1-33.5-0.59 0-1-3.5-1-8.5 0-6.67-0.32-8.61-1.5-9-1.29-0.43-1.5-4.56-1.5-29 0-24.67-0.2-28.5-1.5-28.5-1.11 0-1.5-1.17-1.5-4.5 0-3.33-0.39-4.5-1.5-4.5-1.26 0-1.5-2.17-1.5-13.5 0-11.33-0.24-13.5-1.5-13.5-1.22 0-1.5-1.67-1.5-9 0-7.33-0.28-9-1.5-9-1.11 0-1.5-1.17-1.5-4.5 0-3.33-0.39-4.5-1.5-4.5-1.27 0-1.5-2.33-1.5-15 0-12.44-0.26-15.09-1.5-15.5-0.82-0.28-1.5-1.63-1.5-3 0-1.38-0.68-2.72-1.5-3-1.18-0.39-1.5-2.33-1.5-9 0-6.67-0.32-8.61-1.5-9-1.11-0.37-1.5-2.06-1.5-6.5 0-4.67-0.33-6-1.5-6q-1.5 0-1.5-3 0-3-1.5-3c-1.22 0-1.5-1.67-1.5-9 0-7.33-0.28-9-1.5-9q-1.5 0-1.5-3 0-3-1.5-3c-1.22 0-1.5-1.67-1.5-9 0-7.33-0.28-9-1.5-9q-1.5 0-1.5-3 0-3-1.5-3c-1.11 0-1.5-1.17-1.5-4.5 0-3.33-0.39-4.5-1.5-4.5-1.2 0-1.5-1.5-1.5-7.5 0-6-0.3-7.5-1.5-7.5q-1.5 0-1.5-3 0-3-1.5-3c-1.2 0-1.5-1.5-1.5-7.5 0-6-0.3-7.5-1.5-7.5-0.82 0-1.5-0.67-1.5-1.5 0-0.83-0.68-1.5-1.5-1.5-1.11 0-1.5-1.17-1.5-4.5 0-3.11-0.46-4.65-1.5-5q-1.5-0.5-1.5-4.5 0-4-1.5-4.5c-0.82-0.28-1.5-1.63-1.5-3 0-1.38-0.68-2.72-1.5-3-1.09-0.36-1.5-2-1.5-6 0-4-0.41-5.64-1.5-6-0.82-0.28-1.5-1.63-1.5-3 0-1.38-0.68-2.72-1.5-3q-1.5-0.5-1.5-4.5 0-4-1.5-4.5c-0.82-0.28-1.5-1.63-1.5-3 0-1.38-0.68-2.72-1.5-3-0.82-0.28-1.5-1.63-1.5-3 0-1.38-0.68-2.72-1.5-3q-1.5-0.5-1.5-4.5 0-4-1.5-4.5c-0.82-0.28-1.5-1.63-1.5-3 0-1.38-0.68-2.72-1.5-3-0.98-0.33-1.49-1.79-1.48-4.25 0.01-2.94-0.63-4.29-2.96-6.25-1.64-1.38-2.99-3.51-3.02-4.75-0.02-1.24-0.71-2.47-1.54-2.75-0.98-0.33-1.49-1.79-1.48-4.25 0.01-2.94-0.63-4.29-2.96-6.25-2.56-2.15-2.98-3.2-3-7.5-0.02-4.3-0.44-5.35-3-7.5-2.22-1.86-2.99-3.39-3.04-6-0.06-2.8-0.97-4.35-4.55-7.75-4.07-3.87-4.49-4.72-4.72-9.5-0.23-4.93-0.42-5.27-3-5.5-2.43-0.22-2.75-0.66-2.75-3.75 0-1.92-0.67-4.17-1.5-5-0.83-0.83-1.5-2.17-1.5-3 0-0.83-1.56-2.96-3.47-4.75-2.55-2.39-3.47-4.11-3.5-6.5-0.02-2.25-0.95-4.17-3.03-6.25-1.65-1.65-3-3.9-3-5 0-1.1-0.67-2.22-1.5-2.5-0.83-0.28-1.5-1.63-1.5-3 0-1.38-0.67-2.72-1.5-3-0.83-0.28-1.5-1.63-1.5-3 0-1.38-0.67-2.72-1.5-3-0.83-0.28-1.5-1.63-1.5-3 0-1.38-0.67-2.72-1.5-3-0.83-0.28-1.5-1.17-1.5-2 0-0.83-0.67-1.5-1.5-1.5q-1.5 0-1.5-3 0-3-1.5-3c-0.83 0-1.5-0.67-1.5-1.5 0-0.83-0.67-1.5-1.5-1.5q-1.5 0-1.5-3 0-3-1.5-3-1.5 0-1.5-3 0-3-1.5-3c-0.83 0-1.5-0.67-1.5-1.5 0-0.83-0.67-1.5-1.5-1.5q-1.5 0-1.5-3 0-3-1.5-3c-0.83 0-1.5-0.67-1.5-1.5 0-0.83-0.67-1.5-1.5-1.5q-1.5 0-1.5-3 0-3-1.5-3-1.5 0-1.5-3 0-3-1.5-3c-0.83 0-1.5-0.67-1.5-1.5 0-0.83-0.67-1.5-1.5-1.5q-1.5 0-1.5-3 0-3-1.5-3c-0.83 0-1.5-0.67-1.5-1.5 0-0.83-0.67-1.5-1.5-1.5-1.11 0-1.5-1.17-1.5-4.5 0-4.33-0.11-4.5-3-4.5-2.67 0-3-0.33-3-3q0-3-1.5-3c-0.83 0-1.5-0.67-1.5-1.5 0-0.83-0.67-1.5-1.5-1.5q-1.5 0-1.5-3 0-3-1.5-3-1.5 0-1.5-3 0-3-1.5-3c-0.83 0-1.5-0.67-1.5-1.5 0-0.83-0.67-1.5-1.5-1.5-0.83 0-1.5-0.67-1.5-1.5 0-0.83-0.67-1.5-1.5-1.5q-1.5 0-1.5-3 0-3-1.5-3c-0.83 0-1.5-0.67-1.5-1.5 0-0.83-0.67-1.5-1.5-1.5q-1.5 0-1.5-3 0-3-1.5-3c-0.83 0-1.5-0.67-1.5-1.5 0-0.83-0.67-1.5-1.5-1.5q-1.5 0-1.5-3 0-3-1.5-3c-0.83 0-1.5-0.67-1.5-1.5 0-0.83-0.67-1.5-1.5-1.5q-1.5 0-1.5-3 0-3-1.5-3c-0.83 0-1.5-0.67-1.5-1.5 0-0.83-0.67-1.5-1.5-1.5-0.83 0-1.5-0.67-1.5-1.5 0-0.83-0.67-1.72-1.5-2-0.83-0.28-1.5-1.4-1.5-2.5 0-1.1-2.01-3.91-4.47-6.25-2.46-2.34-4.48-5.15-4.49-6.25 0-1.1-1.35-3.13-2.98-4.5-1.64-1.38-2.99-3.4-3-4.5-0.02-1.1-1.37-3.13-3-4.5-1.64-1.38-3.01-3.4-3.05-4.5-0.04-1.1-2.76-4.59-6.04-7.75-3.39-3.26-5.97-6.62-5.97-7.75 0-1.1-0.63-2.34-1.4-2.75-0.78-0.41-1.56-1.88-1.75-3.25-0.27-1.9-1.01-2.56-3.1-2.75-2-0.18-2.75-0.8-2.75-2.25 0-1.12-2.58-4.52-5.89-7.75-3.24-3.16-6.16-6.99-6.5-8.5-0.33-1.51-1.28-2.75-2.11-2.75-0.83 0-1.5-0.67-1.5-1.5 0-0.83-0.67-1.5-1.5-1.5q-1.5 0-1.5-3 0-3-1.5-3c-0.83 0-1.5-0.67-1.5-1.5 0-0.83-0.67-1.5-1.5-1.5-0.83 0-1.5-0.67-1.5-1.5 0-0.83-0.67-1.5-1.5-1.5-0.83 0-1.5-0.67-1.5-1.5 0-0.83-0.67-1.5-1.5-1.5q-1.5 0-1.5-3 0-3-1.5-3c-0.83 0-1.5-0.67-1.5-1.5 0-0.83-0.67-1.5-1.5-1.5-0.83 0-1.5-0.67-1.5-1.5 0-0.83-0.67-1.5-1.5-1.5q-1.5 0-1.5-3 0-3-1.5-3c-0.83 0-1.5-0.67-1.5-1.5 0-0.83-0.67-1.5-1.5-1.5q-1.5 0-1.5-3 0-3-1.5-3c-0.83 0-1.5-0.67-1.5-1.5 0-0.83-0.67-1.5-1.5-1.5-0.83 0-1.5-0.67-1.5-1.5 0-0.83-0.67-1.5-1.5-1.5q-1.5 0-1.5-3 0-3-1.5-3c-0.83 0-1.5-0.67-1.5-1.5 0-0.83-0.67-1.5-1.5-1.5q-1.5 0-1.5-3c0-2.67-0.33-3-3-3-2.67 0-3-0.33-3-3q0-3-1.5-3c-0.83 0-1.5-0.67-1.5-1.5 0-0.83-0.67-1.5-1.5-1.5-0.83 0-1.5-0.67-1.5-1.5 0-0.83-0.67-1.5-1.5-1.5-0.96 0-1.52-0.99-1.54-2.75-0.03-1.79-1.08-3.62-3.02-5.25-1.63-1.38-2.97-3.29-2.96-4.25 0.01-0.96-3.35-5.13-7.48-9.25-4.33-4.33-7.5-8.34-7.5-9.5 0-1.1-0.67-2.22-1.5-2.5-0.83-0.28-1.51-1.51-1.53-2.75-0.02-1.41-2.25-4.39-6-8-3.28-3.16-5.96-6.54-5.95-7.5 0.01-0.96-1.33-2.88-2.96-4.25-1.64-1.38-3.01-3.4-3.04-4.5-0.04-1.1-2.09-3.91-4.55-6.25-2.46-2.34-4.47-5.04-4.46-6 0-0.96-1.29-2.88-2.87-4.25-1.59-1.38-3.06-3.63-3.26-5-0.29-1.89-1.05-2.56-3.13-2.75-2.2-0.2-2.75-0.75-2.75-2.75 0-1.38-0.67-2.72-1.5-3-0.83-0.28-1.5-1.51-1.49-2.75 0-1.24-1.28-3.37-2.87-4.75-1.59-1.38-3.06-3.63-3.26-5-0.29-1.89-1.05-2.56-3.13-2.75-2.12-0.19-2.75-0.77-2.73-2.5 0.01-1.28-1.27-3.32-2.96-4.75-1.64-1.38-2.99-3.51-3.02-4.75-0.02-1.24-0.67-2.59-1.44-3-0.78-0.41-1.56-1.88-1.75-3.25-0.27-1.9-1.01-2.56-3.1-2.75-2-0.18-2.75-0.8-2.75-2.25 0-1.1-1.95-3.91-4.33-6.25-2.38-2.34-4.63-5.49-5-7-0.37-1.51-1.34-2.75-2.17-2.75-0.83 0-1.5-0.67-1.5-1.5 0-0.83-0.67-1.5-1.5-1.5q-1.5 0-1.5-3 0-3-1.5-3c-0.83 0-1.5-0.67-1.5-1.5 0-0.83-0.67-1.5-1.5-1.5-0.83 0-1.5-0.67-1.5-1.5 0-0.83-0.67-1.5-1.5-1.5q-1.5 0-1.5-3 0-3-1.5-3c-0.83 0-1.5-0.67-1.5-1.5 0-0.83-0.67-1.5-1.5-1.5-0.96 0-1.52-0.99-1.54-2.75-0.03-1.79-1.08-3.62-3.02-5.25-1.63-1.38-2.98-3.4-2.98-4.5-0.01-1.1-2.03-3.91-4.49-6.25-2.46-2.34-4.46-5.04-4.45-6 0.01-0.96-1.33-2.88-2.96-4.25-1.64-1.38-3.01-3.4-3.04-4.5-0.04-1.1-2.09-3.91-4.55-6.25-2.46-2.34-4.58-5.26-4.72-6.5-0.18-1.65-0.98-2.32-3-2.5-2.33-0.21-2.75-0.7-2.75-3.25q0-3-1.5-3c-0.83 0-1.5-0.67-1.5-1.5 0-0.83-0.67-1.5-1.5-1.5q-1.5 0-1.5-3 0-3-1.5-3c-0.83 0-1.5-0.67-1.5-1.5 0-0.83-0.67-1.5-1.5-1.5-0.83 0-1.5-0.67-1.5-1.5 0-0.83-0.67-1.5-1.5-1.5q-1.5 0-1.5-3 0-3-1.5-3c-0.83 0-1.5-0.67-1.5-1.5 0-0.83-0.67-1.5-1.5-1.5q-1.5 0-1.5-3 0-3-1.5-3c-0.83 0-1.5-0.67-1.5-1.5 0-0.83-0.67-1.5-1.5-1.5-0.83 0-1.5-0.67-1.5-1.5 0-0.83-0.67-1.5-1.5-1.5q-1.5 0-1.5-3 0-3-1.5-3c-0.83 0-1.5-0.67-1.5-1.5 0-0.83-0.67-1.5-1.5-1.5q-1.5 0-1.5-3 0-3-1.5-3c-0.83 0-1.5-0.67-1.5-1.5 0-0.83-0.67-1.5-1.5-1.5-0.83 0-1.5-0.67-1.5-1.5 0-0.83-0.67-1.5-1.5-1.5q-1.5 0-1.5-3 0-3-1.5-3c-0.83 0-1.5-0.67-1.5-1.5 0-0.83-0.67-1.5-1.5-1.5q-1.5 0-1.5-3 0-3-1.5-3c-0.83 0-1.5-0.67-1.5-1.5 0-0.83-0.67-1.5-1.5-1.5-0.83 0-1.5-0.67-1.5-1.5 0-0.83-0.67-1.5-1.5-1.5-0.83 0-1.5-0.67-1.5-1.5 0-0.83-0.67-1.5-1.5-1.5q-1.5 0-1.5-3 0-3-1.5-3-1.5 0-1.5-3 0-3-1.5-3c-0.83 0-1.5-0.67-1.5-1.5 0-0.83-0.67-1.5-1.5-1.5-0.83 0-1.5-0.67-1.5-1.5 0-0.83-0.45-1.5-1-1.5-0.55 0-1.9-0.9-3-2-1.1-1.1-2.01-2.79-2.03-3.75-0.01-0.96-2.04-3.66-4.5-6-2.46-2.34-4.46-5.04-4.45-6 0.01-0.96-1.35-3.1-3.02-4.75-1.67-1.65-3.03-3.67-3.01-4.5 0.02-0.83-1.98-3.52-4.44-6-2.46-2.48-4.72-5.74-5.01-7.25-0.3-1.54-1.2-2.75-2.04-2.75-0.83 0-1.5-0.67-1.5-1.5 0-0.83-0.45-1.5-1-1.5-0.55 0-1.22-1.35-1.5-3-0.3-1.78-1.11-3-2-3-0.83 0-1.5-0.67-1.5-1.5 0-0.83-0.67-1.5-1.5-1.5-0.83 0-1.5-0.67-1.5-1.5 0-0.83-0.67-1.5-1.5-1.5q-1.5 0-1.5-3 0-3-1.5-3c-0.83 0-1.5-0.67-1.5-1.5 0-0.83-0.67-1.5-1.5-1.5q-1.5 0-1.5-3 0-3-1.5-3c-0.83 0-1.5-0.67-1.5-1.5 0-0.83-0.67-1.5-1.5-1.5-0.83 0-1.5-0.67-1.5-1.5 0-0.83-0.67-1.5-1.5-1.5q-1.5 0-1.5-3 0-3-1.5-3c-0.83 0-1.5-0.67-1.5-1.5 0-0.83-0.67-1.5-1.5-1.5-0.83 0-1.5-0.67-1.5-1.5 0-0.83-0.67-1.5-1.5-1.5-0.83 0-1.5-0.67-1.5-1.5 0-0.83-0.67-1.5-1.5-1.5q-1.5 0-1.5-3 0-3-1.5-3-1.5 0-1.5-3c0-2.67-0.33-3-3-3-2.67 0-3-0.33-3-3q0-3-1.5-3c-0.83 0-1.5-0.67-1.5-1.5 0-0.83-0.67-1.5-1.5-1.5q-1.5 0-1.5-3 0-3-1.5-3c-0.83 0-1.5-0.67-1.5-1.5 0-0.83-0.67-1.5-1.5-1.5-0.83 0-1.5-0.67-1.5-1.5 0-0.83-0.67-1.5-1.5-1.5q-1.5 0-1.5-3 0-3-1.5-3c-0.83 0-1.5-0.67-1.5-1.5 0-0.83-0.67-1.5-1.5-1.5-0.83 0-1.5-0.67-1.5-1.5 0-0.83-0.67-1.5-1.5-1.5-0.83 0-1.5-0.67-1.5-1.5 0-0.83-0.67-1.5-1.5-1.5q-1.5 0-1.5-3 0-3-1.5-3c-0.83 0-1.5-0.67-1.5-1.5 0-0.83-0.67-1.5-1.5-1.5q-1.5 0-1.5-3 0-3-1.5-3-1.5 0-1.5-3c0-2.67-0.33-3-3-3-2.67 0-3-0.33-3-3q0-3-1.5-3c-0.83 0-1.5-0.67-1.5-1.5 0-0.83-0.67-1.5-1.5-1.5-0.83 0-1.5-0.67-1.5-1.5 0-0.83-0.67-1.5-1.5-1.5-0.96 0-1.52-0.99-1.54-2.75-0.03-1.79-1.08-3.62-3.02-5.25-1.63-1.38-2.97-3.29-2.96-4.25 0.01-0.96-3.35-5.13-7.48-9.25-4.12-4.13-7.51-8.29-7.53-9.25-0.01-0.96-2.04-3.66-4.5-6-2.46-2.34-4.48-5.04-4.5-6-0.02-0.96-2.72-4.34-6-7.5-3.28-3.16-5.97-6.42-5.97-7.25 0-0.83-1.01-2.62-2.25-3.98-1.24-1.37-3.26-2.49-4.5-2.5-1.58-0.01-2.25-0.62-2.25-2.02 0-1.13-2.58-4.49-5.96-7.75-3.28-3.16-5.97-6.42-5.97-7.25 0-0.83-1.14-2.74-2.54-4.25-1.39-1.51-2.98-2.75-3.53-2.75-0.55 0-1-0.67-1-1.5 0-0.83-0.67-1.5-1.5-1.5-0.83 0-1.5-0.67-1.5-1.5 0-0.83-0.67-1.5-1.5-1.5-0.83 0-1.5-0.67-1.5-1.5 0-0.83-0.67-1.5-1.5-1.5-0.83 0-1.5-0.67-1.5-1.5 0-0.83-0.67-1.5-1.5-1.5q-1.5 0-1.5-3c0-2.67-0.33-3-3-3-2.67 0-3-0.33-3-3 0-2.67-0.33-3-3-3q-3 0-3-1.5c0-0.83-0.67-1.5-1.5-1.5-0.83 0-1.5-0.67-1.5-1.5 0-0.83-0.67-1.5-1.5-1.5-0.83 0-1.5-0.67-1.5-1.5 0-0.83-0.67-1.5-1.5-1.5-0.83 0-1.5-0.67-1.5-1.5 0-0.83-0.67-1.5-1.5-1.5-0.83 0-1.5-0.67-1.5-1.5q0-1.5-3-1.5-3 0-3-1.5c0-0.83-0.67-1.5-1.5-1.5-0.83 0-1.5-0.67-1.5-1.5 0-0.83-0.67-1.5-1.5-1.5-0.83 0-1.5-0.67-1.5-1.5q0-1.5-3-1.5-3 0-3-1.5c0-0.83-0.67-1.5-1.5-1.5-0.83 0-1.5-0.67-1.5-1.5 0-1.11-1.17-1.5-4.5-1.5-3.33 0-4.5-0.39-4.5-1.5q0-1.5-3-1.5-3 0-3-1.5c0-1.17-1.33-1.5-6-1.5-3.33 0-6-0.44-6-1 0-0.63-7.67-1-21-1-13.33 0-21 0.37-21 1z"/>
		<path id="Path 1" class="s1" d="m1240.86 1107.62c-0.75 0.9-3.43 2.63-5.97 3.85-2.86 1.38-9.28 6.9-17 14.64-6.81 6.83-16.44 16.85-21.39 22.27-4.95 5.42-10.57 11.54-12.5 13.59-1.92 2.06-13.17 13.72-25 25.91-11.82 12.19-50.39 51.06-85.69 86.39-35.3 35.33-77.4 77.28-93.55 93.23-16.15 15.95-34.33 33.73-40.4 39.5-6.08 5.78-18.39 17.48-27.36 26-8.98 8.53-24.75 23.83-35.05 34-10.3 10.18-22.5 22-27.09 26.29-4.6 4.28-8.81 8.22-9.36 8.74-0.55 0.53-2.06 1.98-3.35 3.22-1.29 1.24-3.09 3.11-4 4.16-0.91 1.05-4.1 4.2-7.09 7-2.99 2.8-15.22 14.77-27.19 26.59-11.97 11.83-28.78 28.25-37.36 36.5-8.58 8.25-23.79 23.02-33.8 32.82-10.02 9.8-22.03 21.25-26.71 25.46-4.67 4.2-12.34 11.26-17.03 15.68-4.69 4.42-18.6 17.72-30.9 29.54-12.31 11.83-25.65 24.65-29.64 28.5-4 3.85-12.54 11.95-18.98 18-6.44 6.05-15.59 14.94-20.33 19.76-4.74 4.81-9.93 10.21-11.53 12-1.6 1.78-3.78 5.27-4.84 7.74-1.06 2.48-2.86 5.85-4.01 7.5-1.28 1.85-2.4 5.69-2.93 10-0.46 3.85-1.8 11.28-2.97 16.5-1.83 8.19-1.97 10.46-1.06 16.5 0.58 3.85 1.99 12.18 3.13 18.5 1.59 8.78 3.08 13.51 6.29 20 2.32 4.68 5.48 10.3 7.03 12.5 1.56 2.2 2.81 4.34 2.8 4.75-0.02 0.41 3.91 4.78 8.72 9.71 4.81 4.93 9.2 8.96 9.75 8.97 0.55 0 1.9 0.97 3 2.15 1.1 1.17 4.48 3.38 7.5 4.9 3.03 1.52 6.18 3.53 7 4.47 0.83 0.94 3.98 2.42 7 3.29 3.03 0.87 7.53 2.65 10 3.96 4.1 2.16 6.11 2.42 22.5 2.95 11.09 0.36 20.88 0.16 25.5-0.52 4.18-0.61 9.6-2.21 12.25-3.62 2.61-1.38 6.66-2.83 9-3.23 2.34-0.39 5.83-1.89 7.75-3.33 1.93-1.44 4.96-3.37 6.75-4.29 1.79-0.91 5.39-3.25 8-5.2 2.61-1.95 6.23-4.76 8.05-6.25 1.81-1.49 11.54-10.81 21.62-20.71 10.08-9.9 25.25-24.59 33.71-32.64 8.45-8.06 20.98-19.98 27.83-26.5 6.86-6.53 20.81-19.92 31-29.76 10.2-9.85 22.59-21.51 27.54-25.91 4.95-4.41 10.41-9.4 12.14-11.1 1.73-1.7 3.76-3.68 4.5-4.4 0.75-0.72 10.44-10.4 21.53-21.5 11.09-11.11 27.2-26.94 35.8-35.19 8.6-8.25 16.4-15.83 17.33-16.84 0.94-1.01 4.11-4.16 7.05-7 2.95-2.84 28.43-28.11 56.65-56.16 28.21-28.05 64.54-64.05 80.75-80 16.2-15.95 30.38-30.57 31.51-32.5 1.44-2.44 3.45-4.03 6.65-5.25l4.59-1.75c3.35 5.05 3.37 5.68 2.04 9.89-1.24 3.91-1.51 21.39-1.75 114.36-0.25 95.16-0.49 110.15-1.79 112.75-0.82 1.65-59.95 61.39-131.39 132.75-71.44 71.36-130.73 130.47-131.75 131.36-1.02 0.88-2.6 2.46-3.51 3.5-0.91 1.04-2.71 2.9-4 4.14-1.29 1.24-2.88 2.82-3.52 3.5-0.64 0.69-4.09 4.18-7.67 7.75-3.57 3.58-6.98 6.95-7.57 7.5-0.6 0.55-2.1 2.06-3.34 3.35-1.24 1.29-3.09 3.09-4.11 4-1.03 0.91-6.09 5.93-11.25 11.15-5.16 5.22-9.72 9.85-10.13 10.27-0.42 0.42-11.78 11.8-25.26 25.28-13.47 13.47-25.17 25.16-26 25.97-0.82 0.82-8.09 7.89-16.15 15.73-8.06 7.84-26.73 25.99-41.5 40.34-14.77 14.35-32.46 31.45-39.31 38-6.85 6.55-18.97 18.21-26.94 25.91-7.97 7.7-19.31 18.72-25.2 24.5-5.89 5.78-14.57 14.1-19.3 18.5-4.72 4.4-10.31 9.57-12.42 11.5-2.11 1.93-7.8 7.32-12.64 12-4.84 4.68-9.26 9.4-9.82 10.5-0.56 1.1-1.62 2.34-2.37 2.75-0.74 0.41-2.52 3.34-3.96 6.5-1.43 3.16-3.59 6.88-4.79 8.25-1.2 1.38-2.5 4.64-2.89 7.25-0.39 2.61-1.92 6.89-3.39 9.5-2.13 3.77-2.89 6.92-3.68 15.25-0.67 6.95-0.67 15.4-0.02 25 0.9 13.29 1.21 14.83 3.7 18.5 1.5 2.2 3.16 6.36 3.7 9.25 0.54 2.91 2.03 6.48 3.34 8 1.3 1.51 3.17 4.32 4.16 6.25 0.98 1.93 4.13 6.43 6.98 10 2.86 3.57 7.01 8.07 9.23 10 2.23 1.93 5.78 4.9 7.91 6.61 2.12 1.72 5.66 4.12 7.86 5.35 2.2 1.23 4.9 3.01 6 3.97 1.1 0.95 4.03 2.29 6.5 2.98 2.48 0.69 6.08 2.35 8 3.68 2.14 1.49 6.02 2.8 10 3.4 3.58 0.53 13.25 0.99 21.5 1.01 8.25 0.03 18.6-0.35 23-0.83 6.49-0.72 9.51-1.69 16-5.14 4.4-2.34 8.79-5.1 9.75-6.14 0.96-1.04 3.44-2.61 5.5-3.48 2.06-0.88 4.92-2.79 6.35-4.25 1.43-1.46 7.91-7.61 14.42-13.66 6.5-6.05 14.33-13.64 17.4-16.87 3.07-3.23 6.42-6.6 7.44-7.5 1.02-0.9 16.64-16.25 34.72-34.13 18.08-17.87 46.41-45.78 62.96-62 16.55-16.22 35.8-35.26 42.78-42.31 6.97-7.04 18.48-18.52 25.57-25.5 7.09-6.98 18.56-18.4 25.5-25.38 6.93-6.98 19.81-19.87 28.61-28.64 8.8-8.77 26.11-25.78 38.46-37.81 12.36-12.02 45.49-44.81 73.62-72.86 28.13-28.05 52.34-52.91 53.79-55.25 2.32-3.75 3.07-4.26 6.38-4.29 2.25-0.03 4.35 0.61 5.25 1.59 1.3 1.43 1.31 2.07 0.11 4.8-1.17 2.67-1.46 69.86-1.85 437.65-0.37 337.87-0.2 436.17 0.74 442 0.67 4.13 1.39 16.28 1.59 27 0.3 15.8 0.65 19.69 1.85 20.5 0.82 0.55 1.5 1.56 1.52 2.25 0.03 0.93 3.7 1.31 14.21 1.5 10.31 0.18 14.26 0.59 14.5 1.5 0.24 0.93 4.17 1.25 15.33 1.25 12.67 0 15 0.23 15 1.5 0 1.31 5.06 1.5 39.5 1.5 34.22 0 39.57-0.2 40-1.5 0.4-1.19 2.39-1.5 9.5-1.5 6.36 0 9.1-0.37 9.33-1.25 0.23-0.85 3.09-1.33 9-1.5 4.77-0.14 8.65-0.59 8.63-1-0.02-0.41 1.33-1.43 3.01-2.25 2.61-1.29 3.42-2.71 5.67-10l2.62-8.5c0.19-643.25-0.06-845.97-0.42-865.5-0.37-19.52-0.82-37.29-1-39.48-0.3-3.51-0.02-4.12 2.41-5.25 1.96-0.9 3.47-0.98 5.25-0.27 1.38 0.55 3.18 2.35 4 4 0.83 1.65 17.36 18.94 36.75 38.42 19.39 19.48 41.15 41.42 48.37 48.75 7.21 7.33 15.54 15.64 18.5 18.47 2.96 2.82 6.39 6.2 7.63 7.5 1.24 1.3 2.82 2.92 3.5 3.61 0.69 0.68 2.31 2.26 3.6 3.5 1.29 1.24 3.09 3.03 4 3.98 0.91 0.95 23.93 23.99 51.15 51.2 27.22 27.21 50.08 50.06 50.79 50.77 0.71 0.72 7.06 7.15 14.12 14.3 7.05 7.15 13.67 13.73 14.71 14.63 1.03 0.9 4.38 4.27 7.44 7.5 3.06 3.23 8.24 8.46 11.5 11.63 3.27 3.16 6.5 6.31 7.19 7 0.68 0.68 2.26 2.3 3.5 3.59 1.24 1.29 3.01 3.09 3.93 4 0.93 0.91 4.08 4.07 7 7.02 2.93 2.96 22.52 22.53 43.53 43.5 21.02 20.97 45.32 45.01 54 53.41 8.69 8.41 17.37 16.63 19.29 18.27 1.93 1.65 4.85 4.19 6.5 5.65 1.65 1.47 5.03 3.54 7.5 4.62 2.47 1.08 5.74 3.03 7.25 4.32 1.55 1.33 5.25 2.86 8.5 3.5 3.16 0.63 8.22 2.32 11.25 3.75 5.26 2.49 6.26 2.61 22.5 2.61 15.7 0 17.32-0.17 21.25-2.25 2.34-1.24 7.29-2.95 11-3.8 3.71-0.86 8.1-2.6 9.75-3.88 1.65-1.27 4.8-3.07 7-4 2.2-0.92 4.9-2.5 6-3.51 1.1-1 3.35-2.5 5-3.32 1.65-0.82 6.53-5.04 10.85-9.37 4.82-4.83 8.74-9.8 10.14-12.87 1.25-2.75 3.25-5.9 4.43-7 1.19-1.1 2.67-3.57 3.29-5.5 0.62-1.93 2.3-5.3 3.74-7.5 1.73-2.65 2.86-6.12 3.33-10.25 0.4-3.44 1.62-8.5 2.72-11.25 1.59-3.99 2-7.33 2-16.5 0-9.6-0.41-12.74-2.5-19-1.37-4.12-2.5-9.19-2.5-11.25 0-2.06-0.88-5.32-1.95-7.25-1.07-1.93-3.04-5.75-4.37-8.5-1.33-2.75-3.21-5.68-4.19-6.5-0.98-0.82-2.66-3.52-3.72-6-1.07-2.47-3.25-5.85-4.85-7.5-1.6-1.65-7.21-7.27-12.48-12.5-5.26-5.22-20.13-20.07-33.03-33-12.9-12.93-26.26-26.28-29.69-29.69-3.42-3.4-6.56-6.55-6.98-7-0.41-0.44-13.36-13.41-28.77-28.81-15.41-15.4-35.32-35.31-44.24-44.24-8.93-8.93-31.87-31.88-50.98-51-19.11-19.12-37.11-37.15-40-40.07-2.89-2.92-6.24-6.29-7.44-7.5-1.2-1.2-6.49-6.46-11.74-11.69-5.26-5.22-9.9-9.83-10.31-10.24-0.42-0.41-5.04-5.01-10.26-10.22-5.22-5.22-9.95-9.94-10.5-10.5-0.55-0.55-3.92-3.91-7.5-7.46-3.57-3.55-7.07-7.04-7.78-7.77-0.7-0.72-5.55-5.58-10.77-10.81-5.23-5.22-13.88-13.86-19.23-19.19-5.34-5.33-10.17-10.17-10.72-10.75-0.55-0.58-5.22-5.21-10.37-10.31-5.15-5.09-15.38-15.32-22.73-22.75-7.35-7.42-13.85-13.95-14.45-14.5-0.59-0.55-18.58-18.55-39.97-40-21.39-21.45-39.58-39.67-40.41-40.5-0.84-0.82-4.21-4.2-7.49-7.5-3.28-3.3-6.65-6.67-7.5-7.5-0.84-0.82-7.28-7.25-14.3-14.28-7.03-7.03-20.32-20.42-29.53-29.75-9.21-9.33-17.09-16.95-17.5-16.93-0.41 0.02-1.69-2.12-2.85-4.75-2.1-4.79-2.1-4.87-1.73-114.79 0.32-96.64 0.18-110.46-1.15-113.75-0.96-2.37-1.24-4.71-0.77-6.38 0.7-2.45 1.05-2.59 5.25-2.09 2.9 0.35 4.85 1.18 5.5 2.35 0.55 0.99 3.93 4.62 7.5 8.05 3.58 3.43 7.18 7 8 7.92 0.83 0.92 12.18 12.3 25.24 25.29 13.06 12.98 43.28 42.96 67.17 66.61 23.88 23.65 48.93 48.18 55.67 54.5 6.73 6.33 14.75 13.98 17.83 17 3.07 3.03 10.11 9.78 15.63 15 5.52 5.23 15.36 14.45 21.88 20.5 6.51 6.05 16.91 15.95 23.1 22 6.19 6.05 15.46 15.12 20.62 20.16 5.15 5.05 11.39 11.24 13.86 13.77 2.47 2.52 11.93 11.78 21 20.56 9.08 8.78 16.84 16.31 17.27 16.74 0.42 0.42 6.6 6.62 13.74 13.77 7.15 7.15 18.05 17.84 24.24 23.75 6.19 5.91 14.4 13.6 18.25 17.09 3.85 3.49 12.4 11.42 19 17.62 6.6 6.2 13.13 12 14.5 12.89 1.38 0.89 5.43 4.44 9 7.9 3.58 3.47 6.84 6.29 7.25 6.27 0.41-0.01 2.44 1.53 4.5 3.42 2.06 1.89 5.78 4.04 8.25 4.78 2.47 0.73 5.85 2.47 7.5 3.85 1.87 1.57 4.89 2.78 8 3.21 2.75 0.38 8.38 1.94 12.5 3.46 6.98 2.57 8.54 2.76 22.5 2.71 13.76-0.04 15.54-0.26 21.5-2.64 3.58-1.43 9.2-2.96 12.5-3.4 3.84-0.51 6.9-1.58 8.5-2.97 1.38-1.19 4.75-3.38 7.5-4.85 2.75-1.48 6.51-3.68 8.37-4.89 1.85-1.21 7.36-6.14 12.25-10.95 4.88-4.81 8.88-9.09 8.88-9.5 0-0.41 1.82-3.45 4.03-6.75 2.22-3.3 4.01-6.67 3.99-7.5-0.03-0.82 1.36-3.75 3.08-6.5 2.77-4.44 3.46-7.18 6.13-24.5 2.6-16.84 2.86-20.25 1.9-25-0.61-3.02-1.51-7.52-2.01-10-0.49-2.47-1.17-7.09-1.51-10.25-0.43-4.06-1.32-6.56-3.04-8.5-1.33-1.51-3.15-4.77-4.04-7.25-0.89-2.47-2.9-5.85-4.46-7.5-1.57-1.65-3.1-3.9-3.4-5-0.3-1.1-2.16-4.02-4.12-6.5-1.97-2.47-5.26-6.39-7.31-8.7-2.06-2.32-5.77-6.31-8.24-8.88-2.47-2.57-5.4-5.3-6.5-6.08-1.1-0.77-5.15-4.3-9-7.83-3.85-3.53-13.3-11.88-21-18.54-7.7-6.66-17.17-15.11-21.04-18.79-3.87-3.67-10.59-9.83-14.94-13.68-4.34-3.85-9.04-8.23-10.46-9.74-1.41-1.51-3.76-3.53-5.23-4.5-1.47-0.97-9.56-8.06-17.97-15.76-8.41-7.7-16.97-15.57-19.01-17.5-2.04-1.92-13.87-13.4-26.28-25.5-12.41-12.1-43.94-43.15-70.07-69-26.13-25.85-50.09-49.62-53.25-52.82-3.16-3.21-6.56-6.58-7.55-7.5-0.99-0.93-10.06-9.78-20.16-19.68-10.09-9.9-26.38-25.69-36.2-35.09-9.81-9.4-21.66-20.58-26.34-24.83-4.67-4.26-20.87-20.3-36-35.66-15.12-15.36-59.68-60.21-99.01-99.67-39.33-39.46-80.08-80.07-90.56-90.25-10.48-10.17-26-25.1-34.49-33.17-8.49-8.07-17.01-16.04-18.94-17.71-1.92-1.67-4.24-3.06-5.14-3.08-0.9-0.02-2.25 0.69-3 1.58z"/>
	</g>
</svg>